<svg width="37" height="37" viewBox="0 0 37 37" fill="none" xmlns="http://www.w3.org/2000/svg">
<g clip-path="url(#clip0)">
<path d="M18.5 36.999C28.7172 36.999 37 28.7163 37 18.499C37 8.28176 28.7172 -0.000976562 18.5 -0.000976562C8.28273 -0.000976562 0 8.28176 0 18.499C0 28.7163 8.28273 36.999 18.5 36.999Z" fill="url(#paint0_linear)"/>
<path fill-rule="evenodd" clip-rule="evenodd" d="M18.5 24.2821C15.3395 24.2821 12.7681 21.7107 12.7681 18.5498C12.7681 15.3894 15.3395 12.8179 18.5 12.8179C21.6609 12.8179 24.2323 15.3894 24.2323 18.5498C24.2323 21.7104 21.6605 24.2821 18.5 24.2821ZM15.1899 18.5494C15.1899 16.725 16.6755 15.2401 18.5 15.2401C20.3249 15.2401 21.8098 16.7253 21.8098 18.5494C21.8098 20.3748 20.3253 21.8599 18.5 21.8599C16.6755 21.8599 15.1899 20.3748 15.1899 18.5494Z" fill="white"/>
<path d="M24.4167 14.0032C23.6685 14.0032 23.0601 13.3948 23.0601 12.647C23.0601 11.8992 23.6685 11.2908 24.4167 11.2908C25.1644 11.2908 25.7729 11.8992 25.7729 12.647C25.7729 13.3948 25.1644 14.0032 24.4167 14.0032Z" fill="white"/>
<path fill-rule="evenodd" clip-rule="evenodd" d="M29.6282 24.0637C29.6282 27.16 27.1099 29.6782 24.0137 29.6782H12.986C9.89024 29.6782 7.37158 27.16 7.37158 24.0637V13.0361C7.37158 9.94028 9.89024 7.42163 12.986 7.42163H24.0137C27.1099 7.42163 29.6282 9.94028 29.6282 13.0361V24.0637ZM24.0137 9.8438H12.986C11.2258 9.8438 9.79376 11.2759 9.79376 13.0361V24.0637C9.79376 25.8239 11.2258 27.2564 12.986 27.2564H24.0137C25.7739 27.2564 27.2063 25.8244 27.2063 24.0637V13.0361C27.2063 11.2759 25.7742 9.8438 24.0137 9.8438Z" fill="white"/>
</g>
<defs>
<linearGradient id="paint0_linear" x1="-1.57498e-07" y1="36.9994" x2="37" y2="-0.000644484" gradientUnits="userSpaceOnUse">
<stop stop-color="#DC5441"/>
<stop offset="1" stop-color="#D81DA3"/>
</linearGradient>
<clipPath id="clip0">
<rect width="37" height="37" fill="white"/>
</clipPath>
</defs>
</svg>
