<svg width="37" height="37" viewBox="0 0 37 37" fill="none" xmlns="http://www.w3.org/2000/svg">
<path fill-rule="evenodd" clip-rule="evenodd" d="M18.5 37C28.7173 37 37 28.7173 37 18.5C37 8.28273 28.7173 0 18.5 0C8.28273 0 0 8.28273 0 18.5C0 28.7173 8.28273 37 18.5 37Z" fill="#25D366"/>
<path d="M24.498 20.382C24.197 20.232 22.731 19.515 22.458 19.416C22.185 19.315 21.985 19.266 21.785 19.566C21.588 19.861 21.014 20.53 20.841 20.728C20.666 20.923 20.492 20.938 20.195 20.803C19.895 20.653 18.932 20.338 17.792 19.318C16.904 18.523 16.308 17.548 16.132 17.248C15.958 16.948 16.113 16.783 16.262 16.633C16.398 16.498 16.563 16.288 16.713 16.11C16.859 15.929 16.907 15.809 17.01 15.614C17.11 15.404 17.059 15.239 16.985 15.09C16.91 14.94 16.313 13.47 16.063 12.884C15.823 12.3 15.576 12.374 15.391 12.374C15.219 12.359 15.02 12.359 14.82 12.359C14.62 12.359 14.297 12.433 14.023 12.718C13.75 13.018 12.978 13.738 12.978 15.193C12.978 16.648 14.048 18.058 14.197 18.268C14.346 18.463 16.302 21.463 19.297 22.753C20.011 23.053 20.567 23.233 21.001 23.382C21.715 23.609 22.366 23.577 22.881 23.503C23.455 23.412 24.648 22.782 24.897 22.077C25.152 21.372 25.152 20.787 25.077 20.652C25.003 20.517 24.807 20.442 24.507 20.307L24.498 20.382ZM19.061 27.75H19.045C17.275 27.75 15.521 27.27 13.99 26.37L13.63 26.156L9.88 27.131L10.885 23.486L10.646 23.111C9.656 21.535 9.13 19.72 9.13 17.851C9.13 12.406 13.585 7.966 19.072 7.966C21.726 7.966 24.217 9.001 26.093 10.876C27.968 12.735 29.002 15.226 29.002 17.866C28.998 23.31 24.542 27.751 19.067 27.751L19.061 27.75ZM27.52 9.449C25.24 7.245 22.24 6 19.045 6C12.463 6 7.104 11.334 7.101 17.893C7.101 19.989 7.65 22.033 8.696 23.838L7 30L13.335 28.348C15.081 29.291 17.045 29.792 19.045 29.795H19.051C25.636 29.795 30.997 24.459 31 17.899C31 14.723 29.76 11.734 27.505 9.488" fill="white"/>
</svg>
